<?xml version="1.0" encoding="utf-8"?>
<!-- Generator: Adobe Illustrator 26.3.1, SVG Export Plug-In . SVG Version: 6.00 Build 0)  -->
<svg version="1.1" id="Capa_1" xmlns="http://www.w3.org/2000/svg" xmlns:xlink="http://www.w3.org/1999/xlink" x="0px" y="0px"
	 viewBox="0 0 69.4 70" style="enable-background:new 0 0 69.4 70;" xml:space="preserve">
<style type="text/css">
	.st0{fill:#D84A4A;}
</style>
<path class="st0" d="M69.2,34.8c0,19.2-15.4,34.8-34.3,34.8c-19.3,0-34.7-15.4-34.7-34.7c0-19,15.5-34.5,34.5-34.5
	C53.7,0.4,69.2,15.9,69.2,34.8z M34.7,3c-17.6,0-32,14.4-32,32c0,17,13.3,31.9,32.1,31.9c17.4,0,31.8-14.4,31.8-31.8
	C66.7,17.5,52.2,3,34.7,3z"/>
<path class="st0" d="M60.8,46.7c-2.3-2.4-4.3-4.7-6.5-6.9c-2.9-2.9-5.8-5.7-8.8-8.4c-1.2-1.1-2.6-1.6-4.4-1.2
	c-2,0.5-3.8-0.4-5.1-1.8c-2.1-2.3-4.1-4.8-6.1-7.2c-0.6-0.7-1-0.8-1.5-0.2c-0.2,0.2-0.2,0.7-0.1,0.9c2.2,2.6,4.3,5.3,6.7,7.8
	c1.8,2,4.2,2.5,6.8,2.1c1.1-0.2,2.1,0,2.9,0.9c5.1,5.1,10.1,10.2,15.2,15.4C60,48,60,48.1,60,48.1C53.9,60.1,39.6,66.6,25.6,62
	C12.1,57.6,4.2,43.8,6.6,30.4c0.2,0.2,0.5,0.3,0.6,0.4c5.2,4.4,10.5,8.9,15.7,13.3c1.1,0.9,1.5,1.7,1.2,3.2
	c-0.6,3.6,0.9,6.6,3.4,9.1c2.1,2.1,4.4,3.5,7.4,3.9c5.4,0.7,9.8-3.7,9-9.1c-0.8-5.2-5.1-9.7-10.2-10.7c-1.5-0.3-2.9-0.1-4.4,0.3
	c-0.3,0.1-0.8,0-1-0.2C22,34.4,15.8,28.1,9.6,21.9c-0.1-0.1-0.1-0.1-0.2-0.2C15.3,10.2,29.9,3.1,44.4,8.2
	c13.4,4.7,21.5,19.4,18.1,33c-0.5-0.4-0.9-0.7-1.4-1.1c-4.5-3.7-9-7.5-13.5-11.2c-0.8-0.7-1.2-1.5-1.2-2.6c0.1-3-1-5.5-3.5-7.1
	c-2.4-1.6-5-3.1-7.4-4.7c-0.5-0.3-0.9,0-1.1,0.4c-0.1,0.3,0,0.9,0.3,1.1c1,0.7,2,1.2,3,1.9c2,1.4,3.9,2.9,5.8,4.5
	c0.9,0.7,1.4,1.8,1.2,3c-0.3,1.8,0.5,3.2,1.7,4.3c3.4,3,6.7,5.9,10.2,8.8c1.6,1.3,3.2,2.5,4.8,3.7c0.7,0.5,0.8,0.9,0.4,1.6
	C61.4,44.7,61.2,45.6,60.8,46.7z M38.9,26c-0.1-0.2-0.2-0.4-0.3-0.5c-2.3-2.3-4.6-4.6-6.9-6.9c-0.4-0.4-0.8-0.5-1.2,0
	c-0.4,0.4-0.3,0.8,0.1,1.2c2.3,2.2,4.7,4.5,7,6.7c0.2,0.1,0.5,0.3,0.7,0.2C38.5,26.5,38.7,26.2,38.9,26z M40.8,24
	c-0.2-0.2-0.2-0.3-0.4-0.4c-2.3-2.1-4.6-4.3-7-6.4c-0.4-0.3-0.7-0.8-1.2-0.2c-0.5,0.6-0.3,0.9,0.2,1.3c1.3,1.2,2.6,2.4,3.9,3.5
	c1,0.9,2,1.8,3,2.7c0.2,0.2,0.6,0.3,0.8,0.2C40.4,24.6,40.6,24.3,40.8,24z"/>
</svg>
