<?xml version="1.0" encoding="utf-8"?>
<!-- Generator: Adobe Illustrator 26.3.1, SVG Export Plug-In . SVG Version: 6.00 Build 0)  -->
<svg version="1.1" id="Capa_1" xmlns="http://www.w3.org/2000/svg" xmlns:xlink="http://www.w3.org/1999/xlink" x="0px" y="0px"
	 viewBox="0 0 350 115.8" style="enable-background:new 0 0 350 115.8;" xml:space="preserve">
<style type="text/css">
	.st0{fill:#FF6600;}
</style>
<g>
	<path class="st0" d="M342.6,27.5c-4.9-8.8-11.9-15.6-20.9-20.4c-9-4.8-19.5-7.2-31.4-7.2C278.5,0,268,2.4,259,7.2
		c-1.7,0.9-3.3,1.9-4.8,3V2.6h-5.3c-8.4,0-15,1.4-20,4.3c-5,2.9-9.2,7.1-12.5,12.7l-2.9-17h-28.2V25c-4.9-7.8-11.5-13.9-20-18.2
		C156.5,2.2,146.4,0,135,0c-11.3,0-21.2,2.4-29.8,7.2c-2.4,1.3-4.6,2.9-6.7,4.5v-9H2.6v26.2h53.9L0,94.7v21.1h101v-10.3
		c1.7,1.2,3.5,2.3,5.4,3.3c9.2,4.7,20.1,7,32.7,7c9.7,0,18.3-1.7,25.8-5.2c7.5-3.4,13.5-8.2,18-14.2c0.8-1.1,1.5-2.3,2.3-3.4v22.8
		h31V60.3c0-9.1,2.1-16.3,6.2-21.6c3.2-4.1,7.8-6.6,13.9-7.5c-3.7,7.9-5.6,16.8-5.6,26.6c0,11.4,2.5,21.6,7.4,30.4
		c4.9,8.8,11.9,15.6,20.9,20.4c9,4.8,19.5,7.2,31.4,7.2c11.9,0,22.3-2.4,31.4-7.2c9-4.8,16-11.5,20.9-20.3
		c4.9-8.7,7.4-18.9,7.4-30.5C350,46.4,347.5,36.3,342.6,27.5z M78.9,46.4c-0.6,3.7-1,7.6-1,11.7c0,11.6,2.5,21.8,7.4,30.5
		c0.2,0.4,0.5,0.6,0.7,1H41.8L78.9,46.4z M119.2,28.9c4.6-3.9,10.3-5.8,17.1-5.8c7,0,12.9,1.9,17.5,5.6s7.4,9.1,8.5,16H111
		C111.9,38.1,114.6,32.8,119.2,28.9z M160.9,76.2c-1.3,5.3-4.1,9.3-8.3,12c-4.2,2.7-9.4,4.1-15.7,4.1c-7.9,0-14.2-2.3-18.7-7
		c-4.5-4.7-7.2-11.2-7.9-19.4v-0.9h74.9v11.2H160.9z M310.9,81.5c-5.1,6-11.9,9-20.6,9c-8.5,0-15.3-3-20.4-9
		c-5.1-6-7.6-13.9-7.6-23.6c0-9.7,2.5-17.5,7.6-23.6c5.1-6,11.9-9,20.4-9c8.7,0,15.5,3,20.6,9c5.1,6,7.6,13.9,7.6,23.6
		C318.5,67.6,316,75.4,310.9,81.5z"/>
</g>
</svg>
