<?xml version="1.0" encoding="utf-8"?>
<!-- Generator: Adobe Illustrator 26.3.1, SVG Export Plug-In . SVG Version: 6.00 Build 0)  -->
<svg version="1.1" id="Capa_1" xmlns="http://www.w3.org/2000/svg" xmlns:xlink="http://www.w3.org/1999/xlink" x="0px" y="0px"
	 viewBox="0 0 400 238.1" style="enable-background:new 0 0 400 238.1;" xml:space="preserve">
<style type="text/css">
	.st0{fill:#E3E3E3;}
	.st1{fill:#FFDDC7;}
	.st2{fill:#FFFFFF;}
	.st3{fill:#FFB98A;}
	.st4{fill:#D3DFFF;}
	.st5{fill:#FFA163;}
	.st6{fill:#F9B384;}
	.st7{fill:#102048;}
	.st8{fill:#EB5D60;}
	.st9{fill:#7D69ED;}
	.st10{fill:#E28B6D;}
	.st11{fill:#5B4DAD;}
	.st12{fill:#FBC343;}
	.st13{fill:#E49B31;}
	.st14{fill:#A35826;}
	.st15{fill:#FF893B;}
	.st16{fill:#753F1B;}
</style>
<g>
	<g>
		<g>
			<path class="st0" d="M368.6,111.8C351.2,99.2,330.2,93.1,311,84c-18.5-8.8-31.7-22.8-48.3-34.5c-27.1-19-58.4-33.2-90.3-41.9
				c-32.2-8.8-71.6-13.6-101,5.8c-14.4,9.6-26.2,24.4-31,41.2c-5.7,19.9-0.1,40.3,2.6,60.2c2.2,16.2-8.2,25.1-20.4,34.3
				C-6,170.7-5.2,209.7,12.5,237.7h369.1C403.5,198,413.1,143.8,368.6,111.8z"/>
		</g>
		<circle class="st0" cx="14.3" cy="113.8" r="13.7"/>
		<circle class="st0" cx="338.2" cy="45.9" r="20.2"/>
		<ellipse transform="matrix(0.1562 -0.9877 0.9877 0.1562 -62.6217 82.1944)" class="st0" cx="16.8" cy="77.8" rx="6.1" ry="6.1"/>
		<circle class="st0" cx="353.9" cy="81.1" r="6.1"/>
	</g>
	<path class="st1" d="M335.2,41.3v181.1c0,2.5-2.1,4.6-4.6,4.6H73.2c-2.5,0-4.6-2.1-4.6-4.6V41.3c0-2.5,2.1-4.6,4.6-4.6h257.4
		C333.2,36.7,335.2,38.7,335.2,41.3z"/>
	<g>
		<rect x="76.7" y="51.8" class="st2" width="250.4" height="151.8"/>
		<path class="st3" d="M327.5,204H76.4V51.5h251.1V204z M77.1,203.2h249.7V52.2H77.1V203.2z"/>
	</g>
	<g>
		<rect x="76.7" y="42.4" class="st2" width="250.4" height="9.4"/>
		<path class="st3" d="M327.5,52.2H76.4V42h251.1V52.2z M77.1,51.5h249.7v-8.7H77.1V51.5z"/>
	</g>
	<g>
		<path class="st3" d="M88.5,49.3c-1.2,0-2.2-1-2.2-2.2c0-1.2,1-2.2,2.2-2.2c1.2,0,2.2,1,2.2,2.2C90.7,48.3,89.7,49.3,88.5,49.3z
			 M88.5,45.6c-0.8,0-1.5,0.7-1.5,1.5c0,0.8,0.7,1.5,1.5,1.5c0.8,0,1.5-0.7,1.5-1.5C90,46.3,89.3,45.6,88.5,45.6z"/>
		<path class="st3" d="M95.8,49.3c-1.2,0-2.2-1-2.2-2.2c0-1.2,1-2.2,2.2-2.2c1.2,0,2.2,1,2.2,2.2C98,48.3,97,49.3,95.8,49.3z
			 M95.8,45.6c-0.8,0-1.5,0.7-1.5,1.5c0,0.8,0.7,1.5,1.5,1.5s1.5-0.7,1.5-1.5C97.2,46.3,96.6,45.6,95.8,45.6z"/>
		<path class="st3" d="M103.1,49.3c-1.2,0-2.2-1-2.2-2.2c0-1.2,1-2.2,2.2-2.2c1.2,0,2.2,1,2.2,2.2C105.2,48.3,104.3,49.3,103.1,49.3
			z M103.1,45.6c-0.8,0-1.5,0.7-1.5,1.5c0,0.8,0.7,1.5,1.5,1.5s1.5-0.7,1.5-1.5C104.5,46.3,103.9,45.6,103.1,45.6z"/>
	</g>
	<g>
		<rect x="55.5" y="224.1" class="st1" width="292.9" height="13.6"/>
		<path class="st3" d="M348.8,238.1H55.1v-14.4h293.7V238.1z M55.9,237.3H348v-12.8H55.9V237.3z"/>
	</g>
	<g>
		<path class="st2" d="M216.8,217.7h-29.7c-0.5,0-1-0.4-1-1V211c0-0.5,0.4-1,1-1h29.7c0.5,0,1,0.4,1,1v5.6
			C217.8,217.2,217.3,217.7,216.8,217.7z"/>
		<path class="st3" d="M214.4,218h-25c-2,0-3.7-1.7-3.7-3.7v-0.9c0-2,1.7-3.7,3.7-3.7h25c2,0,3.7,1.7,3.7,3.7v0.9
			C218.1,216.4,216.5,218,214.4,218z M189.4,210.4c-1.6,0-3,1.3-3,3v0.9c0,1.6,1.3,3,3,3h25c1.6,0,3-1.3,3-3v-0.9c0-1.6-1.3-3-3-3
			H189.4z"/>
	</g>
	<g>
		<path class="st3" d="M291.6,118.7H112.2c-6.5,0-11.8-5.3-11.8-11.8v-0.8c0-6.5,5.3-11.8,11.8-11.8h179.4c6.5,0,11.8,5.3,11.8,11.8
			v0.8C303.4,113.5,298.1,118.7,291.6,118.7z M112.2,95.2c-6.1,0-11,5-11,11v0.8c0,6.1,5,11,11,11h179.4c6.1,0,11-5,11-11v-0.8
			c0-6.1-5-11-11-11H112.2z"/>
		<path class="st1" d="M136,111h-26.7c-0.6,0-1.1-0.5-1.1-1.1v-6.5c0-0.6,0.5-1.1,1.1-1.1H136c0.6,0,1.1,0.5,1.1,1.1v6.5
			C137.1,110.5,136.6,111,136,111z"/>
		<path class="st4" d="M171.2,111h-24c-0.6,0-1.1-0.5-1.1-1.1v-6.5c0-0.6,0.5-1.1,1.1-1.1h24c0.6,0,1.1,0.5,1.1,1.1v6.5
			C172.3,110.5,171.8,111,171.2,111z"/>
		<path class="st1" d="M211.8,111h-31c-0.6,0-1.1-0.5-1.1-1.1v-6.5c0-0.6,0.5-1.1,1.1-1.1h31c0.6,0,1.1,0.5,1.1,1.1v6.5
			C213,110.5,212.4,111,211.8,111z"/>
		<path class="st1" d="M267.9,110.9h-43.4c-0.6,0-1.1-0.5-1.1-1.1v-6.5c0-0.6,0.5-1.1,1.1-1.1h43.4c0.6,0,1.1,0.5,1.1,1.1v6.5
			C269,110.4,268.5,110.9,267.9,110.9z"/>
	</g>
	<rect x="171.7" y="76.2" class="st5" width="60.5" height="6.3"/>
	<g>
		<g>
			<path class="st6" d="M51.4,135.9l-11.5,2.3l2.6-16.9l7.1,0.1c0,0.3-0.1,0.6-0.1,0.9c-0.3,2.3-0.1,4.6,0.2,6.6
				C50.2,132.9,51.4,135.9,51.4,135.9z"/>
			<path class="st7" d="M49.6,128.9c-4.4-2.1-6.1-6.5-6.1-6.5l5.9-0.1C49.2,124.6,49.3,126.9,49.6,128.9z"/>
			<path class="st6" d="M52.1,111.7c0.5,1.6,3,11.6-1.7,12.7c-4.7,1.1-9.5-3.2-9.5-3.2l1.6-9.6l6.8-2L52.1,111.7z"/>
			<path class="st8" d="M45.9,117.1c0,0,1.2-8,6.2-5.4c-0.2-0.1-0.4-0.9-0.5-1.1c-0.5-0.8-1.1-1.6-1.9-2.1c-2.8-2.1-7.6-1.3-9.9,1.1
				c-2.2,2.3-2.3,6.5-1.2,9.5c0.2,0.5,0.4,1,0.7,1.4c0.3,0.4,0.6,0.7,0.9,1.1c0.3,0.3,2.5,2,2.5,0.7
				C42.8,118.9,45.9,117.1,45.9,117.1z"/>
			<ellipse transform="matrix(0.7741 -0.6331 0.6331 0.7741 -63.8355 55.2144)" class="st6" cx="45.4" cy="117" rx="2" ry="2.4"/>
			<ellipse class="st6" cx="53" cy="117.3" rx="1" ry="1.1"/>
		</g>
		<g>
			<g>
				<path class="st7" d="M37.9,201.2L24.3,207c0,0,11.3,28.7,14.6,30.5c3.3,1.8,1.7-14.1,3.9-18.9l2.9-11.3L37.9,201.2z"/>
				
					<rect x="39.1" y="215.4" transform="matrix(6.935371e-02 -0.9976 0.9976 6.935371e-02 -180.8465 242.9338)" class="st2" width="1.4" height="6"/>
			</g>
			<path class="st9" d="M34.5,199.1l8.3,19.5c0,0,32.2-16.8,40.1-32.2l-12.6-16.5L34.5,199.1z"/>
			<path class="st7" d="M77.6,214.8c0,0,15,0.6,21.9-11.3l-15.3-2.3L77.6,214.8z"/>
			<g>
				<polygon class="st6" points="101.1,216.9 84.2,222.9 82.8,218 80.3,209.3 94.5,202.6 95.4,204.7 				"/>
				<polygon class="st7" points="122.6,237.7 104,223 101.1,216.9 84.2,222.9 88.4,237.7 				"/>
				
					<rect x="99" y="224.8" transform="matrix(0.6173 -0.7867 0.7867 0.6173 -138.3259 166.6039)" class="st2" width="6.2" height="1.4"/>
				<polygon class="st10" points="95.4,204.7 82.8,218 80.3,209.3 94.5,202.6 				"/>
			</g>
			<path class="st9" d="M99.6,203.6c-8,2-15.3,5.8-21.9,11.3l-11.4-30.1c0,0-23.1,22-36.8,18.3C16.3,199.7,22,178,22,178
				c18-12.6,46.5-29.5,59.1-16.1c0.1,0.1,0.1,0.1,0.2,0.2c2.6,2.8,5.5,8.4,8.2,14.5C94.8,188.9,99.6,203.6,99.6,203.6z"/>
			<path class="st11" d="M89.4,176.6c-12.5,2.9-25.3-10.9-25.3-10.9l12.9-4.2l4.1,0.4c0.1,0.1,0.1,0.1,0.2,0.2
				C83.8,164.9,86.7,170.5,89.4,176.6z"/>
			<path class="st11" d="M77.3,215l-11.2-29.5c-2.4,2.3-15.7,14.4-29.7,18.1l-0.2-0.7c15.2-4,29.6-18.2,29.7-18.3l0.4-0.4L78,214.7
				L77.3,215z"/>
		</g>
		<g>
			<path class="st12" d="M40.5,129.7l-5,16.3l-6.8,21.9c0,0-5,1.8-9.3,1.2c-3.9-0.5-7.3-2.8-6.3-9.8
				C15.1,143.9,40.5,129.7,40.5,129.7z"/>
			<path class="st13" d="M35.5,146l-6.8,21.9c0,0-5,1.8-9.3,1.2C23,146.6,35.2,137,35.2,137L35.5,146z"/>
			<polygon class="st12" points="89.9,145.8 86.1,160.1 73.5,148.2 78.5,139.7 85.3,143.4 			"/>
			<polygon class="st6" points="78.5,139.7 83.3,132 93.1,127.9 89.9,145.8 			"/>
			<g>
				<path class="st14" d="M125.8,125c-2.6-0.6-4.9-0.5-6.9,0.3c-1.4,0.5-2.7,1.3-3.8,2.4l-4.7-10.9c1.6-0.3,3.1-0.8,4.5-1.5
					c2-1,3.6-2.5,4.8-4.5L125.8,125z"/>
				<polygon class="st15" points="115,127.6 110.3,116.7 41.1,149.6 43.6,155.4 115,127.6 110.3,116.7 				"/>
				<path class="st16" d="M125.8,125c-2.6-0.6-4.9-0.5-6.9,0.3l-4.1-10c2-1,3.6-2.5,4.8-4.5L125.8,125z"/>
				
					<ellipse transform="matrix(0.7071 -0.7071 0.7071 0.7071 -28.9758 139.1958)" class="st15" cx="153.5" cy="104.6" rx="37" ry="37"/>
				
					<ellipse transform="matrix(0.3835 -0.9235 0.9235 0.3835 -1.9272 206.2625)" class="st2" cx="153.5" cy="104.6" rx="30.8" ry="30.8"/>
				<g>
					<path class="st3" d="M125.5,91.9h56.2c-0.1-0.3-0.2-0.5-0.4-0.8h-55.4C125.7,91.4,125.6,91.6,125.5,91.9z"/>
					<path class="st3" d="M181.5,117.5h-56c0.1,0.3,0.2,0.5,0.4,0.8h55.2C181.3,118,181.4,117.7,181.5,117.5z"/>
					<path class="st1" d="M130.5,105v-0.6c0-2.5-2.1-4.6-4.6-4.6h-2.8c-0.5,3.2-0.5,6.5,0,9.8h2.8
						C128.5,109.6,130.5,107.5,130.5,105z"/>
					<path class="st1" d="M145.1,99.8c-2.6,0-4.7,2.1-4.7,4.7v0.5c0,2.6,2.1,4.7,4.7,4.7h20.1c2.6,0,4.7-2.1,4.7-4.7v-0.5
						c0-2.6-2.1-4.7-4.7-4.7H145.1z"/>
					<path class="st1" d="M184,99.8h-1c-2.7,0-4.9,2.2-4.9,4.9c0,2.7,2.2,4.9,4.9,4.9h1C184.5,106.4,184.5,103.1,184,99.8z"/>
				</g>
			</g>
			<path class="st6" d="M89.9,145.8l-4.6-2.5l2.8-6.1c0,0,3.9-7.1,5.9-6.8C95.9,130.8,89.9,145.8,89.9,145.8z"/>
			<path class="st12" d="M73.5,148.2l-1,1.6c-1.9-2.6-6.1-8.2-11.4-12.6v0c-4.7-4-11.2-10.2-16.8-9.3C29.3,130.1,22,178,22,178
				l38.9-14.1l8.7,6.8c1.9,1.5,4.3,2.2,6.7,2h0c4-0.3,7.4-3.2,8.4-7.1l1.4-5.5L73.5,148.2z"/>
			
				<rect x="55.3" y="152.2" transform="matrix(0.6632 -0.7484 0.7484 0.6632 -100.4465 95.275)" class="st13" width="0.7" height="14.1"/>
			
				<rect x="74.3" y="147.5" transform="matrix(0.8167 -0.5771 0.5771 0.8167 -74.6068 71.1208)" class="st13" width="0.7" height="11"/>
		</g>
	</g>
</g>
</svg>
